<?xml version="1.0" encoding="UTF-8"?>
<svg height="300px" viewBox="-8.233 -8.233 122.466 122.466" xmlns="http://www.w3.org/2000/svg">
<path d="m12.556 103l-9.556-100h100l-9.653 100h-80.791z" fill="#fff" stroke="#464646" stroke-width="5.616" vector-effect="non-scaling-stroke"/>
<g opacity=".8">
<path d="m12.251 56.089h81.5l-4.9 42.022h-71.5l-5.1-42.022z" fill="#934803"/>
</g>
<path d="m46.751 81.733l-19.089 2.938-11-19.053 19.089-2.938 11 19.053z" fill="#bbdefb"/>
<path d="m46.751 81.733l12.088-15.062-11-19.053-12.088 15.062 11 19.053z" fill="#2196f3"/>
<path d="m16.662 65.618l12.089-15.062 19.088-2.938-12.088 15.062-19.089 2.938z" fill="#90caf9"/>
<path d="m61.218 92.7l-15.575-11.42 5.694-21.25 15.575 11.42-5.694 21.25z" fill="#bbdefb"/>
<path d="m61.218 92.7l19.198-2.102 5.694-21.251-19.198 2.103-5.694 21.25z" fill="#2196f3"/>
<path d="m51.337 60.03l19.198-2.103 15.575 11.42-19.198 2.103-15.575-11.42z" fill="#90caf9"/>
<g opacity=".5">
<path d="m89.776 14.76c-1.737-0.073-3.378 0.95-3.475 2.338l-0.289 4.09c-0.097 1.388 1.254 2.557 3.088 2.63h0.193c1.738 0 3.186-1.023 3.282-2.41l0.29-4.091c0.193-1.315-1.158-2.484-3.089-2.557zm-1.062 14.317c-1.834-0.073-3.378 0.95-3.475 2.338l-4.536 59.825h-57.143c-1.834 0-3.379 1.095-3.379 2.556s1.448 2.557 3.379 2.557h60.328c1.737 0 3.185-1.023 3.282-2.411l4.73-62.235c0.096-1.315-1.352-2.557-3.186-2.63z" fill="#a2a2a2" fill-rule="evenodd"/>
</g>
</svg>
